<svg width="24" height="24" viewBox="0 0 24 24" fill="none" xmlns="http://www.w3.org/2000/svg">
<path d="M2.18182 19.2C1.58182 19.2 1.06836 18.9652 0.641455 18.4956C0.213818 18.0252 0 17.46 0 16.8V2.4C0 1.74 0.213818 1.1748 0.641455 0.7044C1.06836 0.2348 1.58182 0 2.18182 0H19.6364C20.2364 0 20.7502 0.2348 21.1778 0.7044C21.6047 1.1748 21.8182 1.74 21.8182 2.4V8.4H19.6364V4.8L11.4818 10.41C11.3909 10.47 11.2953 10.5148 11.1949 10.5444C11.0953 10.5748 11 10.59 10.9091 10.59C10.8182 10.59 10.7229 10.5748 10.6233 10.5444C10.5229 10.5148 10.4273 10.47 10.3364 10.41L2.18182 4.8V16.8H13.0909V19.2H2.18182ZM10.9091 8.4L19.6364 2.4H2.18182L10.9091 8.4ZM19.6364 24C18.4364 24 17.4091 23.53 16.5545 22.59C15.7 21.65 15.2727 20.52 15.2727 19.2V13.8C15.2727 12.96 15.5364 12.25 16.0636 11.67C16.5909 11.09 17.2364 10.8 18 10.8C18.7636 10.8 19.4091 11.09 19.9364 11.67C20.4636 12.25 20.7273 12.96 20.7273 13.8V18C20.7273 18.34 20.6225 18.6248 20.4131 18.8544C20.2044 19.0848 19.9455 19.2 19.6364 19.2C19.3273 19.2 19.0684 19.0848 18.8596 18.8544C18.6502 18.6248 18.5455 18.34 18.5455 18V13.8C18.5455 13.64 18.4909 13.5 18.3818 13.38C18.2727 13.26 18.1455 13.2 18 13.2C17.8545 13.2 17.7273 13.26 17.6182 13.38C17.5091 13.5 17.4545 13.64 17.4545 13.8V19.2C17.4545 19.86 17.668 20.4252 18.0949 20.8956C18.5225 21.3652 19.0364 21.6 19.6364 21.6C20.2364 21.6 20.7502 21.3652 21.1778 20.8956C21.6047 20.4252 21.8182 19.86 21.8182 19.2V15.6C21.8182 15.26 21.9229 14.9748 22.1324 14.7444C22.3411 14.5148 22.6 14.4 22.9091 14.4C23.2182 14.4 23.4771 14.5148 23.6858 14.7444C23.8953 14.9748 24 15.26 24 15.6V19.2C24 20.52 23.5727 21.65 22.7182 22.59C21.8636 23.53 20.8364 24 19.6364 24ZM2.18182 4.8V5.1V3.36C2.18182 3.14 2.18182 3.14 2.18182 3.36V3.33V5.1V4.8V16.8V9.6V4.8Z" fill="#2E1114"/>
<path d="M2.18182 19.2C1.58182 19.2 1.06836 18.9652 0.641455 18.4956C0.213818 18.0252 0 17.46 0 16.8V2.4C0 1.74 0.213818 1.1748 0.641455 0.7044C1.06836 0.2348 1.58182 0 2.18182 0H19.6364C20.2364 0 20.7502 0.2348 21.1778 0.7044C21.6047 1.1748 21.8182 1.74 21.8182 2.4V8.4H19.6364V4.8L11.4818 10.41C11.3909 10.47 11.2953 10.5148 11.1949 10.5444C11.0953 10.5748 11 10.59 10.9091 10.59C10.8182 10.59 10.7229 10.5748 10.6233 10.5444C10.5229 10.5148 10.4273 10.47 10.3364 10.41L2.18182 4.8V16.8H13.0909V19.2H2.18182ZM10.9091 8.4L19.6364 2.4H2.18182L10.9091 8.4ZM19.6364 24C18.4364 24 17.4091 23.53 16.5545 22.59C15.7 21.65 15.2727 20.52 15.2727 19.2V13.8C15.2727 12.96 15.5364 12.25 16.0636 11.67C16.5909 11.09 17.2364 10.8 18 10.8C18.7636 10.8 19.4091 11.09 19.9364 11.67C20.4636 12.25 20.7273 12.96 20.7273 13.8V18C20.7273 18.34 20.6225 18.6248 20.4131 18.8544C20.2044 19.0848 19.9455 19.2 19.6364 19.2C19.3273 19.2 19.0684 19.0848 18.8596 18.8544C18.6502 18.6248 18.5455 18.34 18.5455 18V13.8C18.5455 13.64 18.4909 13.5 18.3818 13.38C18.2727 13.26 18.1455 13.2 18 13.2C17.8545 13.2 17.7273 13.26 17.6182 13.38C17.5091 13.5 17.4545 13.64 17.4545 13.8V19.2C17.4545 19.86 17.668 20.4252 18.0949 20.8956C18.5225 21.3652 19.0364 21.6 19.6364 21.6C20.2364 21.6 20.7502 21.3652 21.1778 20.8956C21.6047 20.4252 21.8182 19.86 21.8182 19.2V15.6C21.8182 15.26 21.9229 14.9748 22.1324 14.7444C22.3411 14.5148 22.6 14.4 22.9091 14.4C23.2182 14.4 23.4771 14.5148 23.6858 14.7444C23.8953 14.9748 24 15.26 24 15.6V19.2C24 20.52 23.5727 21.65 22.7182 22.59C21.8636 23.53 20.8364 24 19.6364 24ZM2.18182 4.8V5.1V3.36C2.18182 3.14 2.18182 3.14 2.18182 3.36V3.33V5.1V4.8V16.8V9.6V4.8Z" fill="black" fill-opacity="0.2"/>
</svg>
