<svg width="120" height="46" viewBox="0 0 120 46" fill="none" xmlns="http://www.w3.org/2000/svg">
<path d="M24.66 16.42C24.66 15.3 24.88 14.3067 25.32 13.44C25.7733 12.5733 26.38 11.9067 27.14 11.44C27.9133 10.9733 28.7733 10.74 29.72 10.74C30.5467 10.74 31.2667 10.9067 31.88 11.24C32.5067 11.5733 33.0067 11.9933 33.38 12.5V10.92H36.2V22H33.38V20.38C33.02 20.9 32.52 21.3333 31.88 21.68C31.2533 22.0133 30.5267 22.18 29.7 22.18C28.7667 22.18 27.9133 21.94 27.14 21.46C26.38 20.98 25.7733 20.3067 25.32 19.44C24.88 18.56 24.66 17.5533 24.66 16.42ZM33.38 16.46C33.38 15.78 33.2467 15.2 32.98 14.72C32.7133 14.2267 32.3533 13.8533 31.9 13.6C31.4467 13.3333 30.96 13.2 30.44 13.2C29.92 13.2 29.44 13.3267 29 13.58C28.56 13.8333 28.2 14.2067 27.92 14.7C27.6533 15.18 27.52 15.7533 27.52 16.42C27.52 17.0867 27.6533 17.6733 27.92 18.18C28.2 18.6733 28.56 19.0533 29 19.32C29.4533 19.5867 29.9333 19.72 30.44 19.72C30.96 19.72 31.4467 19.5933 31.9 19.34C32.3533 19.0733 32.7133 18.7 32.98 18.22C33.2467 17.7267 33.38 17.14 33.38 16.46ZM47.0747 10.76C48.3947 10.76 49.4614 11.18 50.2747 12.02C51.088 12.8467 51.4947 14.0067 51.4947 15.5V22H48.6947V15.88C48.6947 15 48.4747 14.3267 48.0347 13.86C47.5947 13.38 46.9947 13.14 46.2347 13.14C45.4614 13.14 44.848 13.38 44.3947 13.86C43.9547 14.3267 43.7347 15 43.7347 15.88V22H40.9347V10.92H43.7347V12.3C44.108 11.82 44.5814 11.4467 45.1547 11.18C45.7414 10.9 46.3814 10.76 47.0747 10.76ZM57.5773 9.6C57.084 9.6 56.6707 9.44667 56.3373 9.14C56.0173 8.82 55.8573 8.42667 55.8573 7.96C55.8573 7.49333 56.0173 7.10667 56.3373 6.8C56.6707 6.48 57.084 6.32 57.5773 6.32C58.0707 6.32 58.4773 6.48 58.7973 6.8C59.1307 7.10667 59.2973 7.49333 59.2973 7.96C59.2973 8.42667 59.1307 8.82 58.7973 9.14C58.4773 9.44667 58.0707 9.6 57.5773 9.6ZM58.9573 10.92V22H56.1573V10.92H58.9573Z" fill="#2E1114"/>
<path d="M24.66 16.42C24.66 15.3 24.88 14.3067 25.32 13.44C25.7733 12.5733 26.38 11.9067 27.14 11.44C27.9133 10.9733 28.7733 10.74 29.72 10.74C30.5467 10.74 31.2667 10.9067 31.88 11.24C32.5067 11.5733 33.0067 11.9933 33.38 12.5V10.92H36.2V22H33.38V20.38C33.02 20.9 32.52 21.3333 31.88 21.68C31.2533 22.0133 30.5267 22.18 29.7 22.18C28.7667 22.18 27.9133 21.94 27.14 21.46C26.38 20.98 25.7733 20.3067 25.32 19.44C24.88 18.56 24.66 17.5533 24.66 16.42ZM33.38 16.46C33.38 15.78 33.2467 15.2 32.98 14.72C32.7133 14.2267 32.3533 13.8533 31.9 13.6C31.4467 13.3333 30.96 13.2 30.44 13.2C29.92 13.2 29.44 13.3267 29 13.58C28.56 13.8333 28.2 14.2067 27.92 14.7C27.6533 15.18 27.52 15.7533 27.52 16.42C27.52 17.0867 27.6533 17.6733 27.92 18.18C28.2 18.6733 28.56 19.0533 29 19.32C29.4533 19.5867 29.9333 19.72 30.44 19.72C30.96 19.72 31.4467 19.5933 31.9 19.34C32.3533 19.0733 32.7133 18.7 32.98 18.22C33.2467 17.7267 33.38 17.14 33.38 16.46ZM47.0747 10.76C48.3947 10.76 49.4614 11.18 50.2747 12.02C51.088 12.8467 51.4947 14.0067 51.4947 15.5V22H48.6947V15.88C48.6947 15 48.4747 14.3267 48.0347 13.86C47.5947 13.38 46.9947 13.14 46.2347 13.14C45.4614 13.14 44.848 13.38 44.3947 13.86C43.9547 14.3267 43.7347 15 43.7347 15.88V22H40.9347V10.92H43.7347V12.3C44.108 11.82 44.5814 11.4467 45.1547 11.18C45.7414 10.9 46.3814 10.76 47.0747 10.76ZM57.5773 9.6C57.084 9.6 56.6707 9.44667 56.3373 9.14C56.0173 8.82 55.8573 8.42667 55.8573 7.96C55.8573 7.49333 56.0173 7.10667 56.3373 6.8C56.6707 6.48 57.084 6.32 57.5773 6.32C58.0707 6.32 58.4773 6.48 58.7973 6.8C59.1307 7.10667 59.2973 7.49333 59.2973 7.96C59.2973 8.42667 59.1307 8.82 58.7973 9.14C58.4773 9.44667 58.0707 9.6 57.5773 9.6ZM58.9573 10.92V22H56.1573V10.92H58.9573Z" fill="black" fill-opacity="0.2"/>
<path d="M30.3 42.18C29.2333 42.18 28.2733 41.9467 27.42 41.48C26.5667 41 25.8933 40.3267 25.4 39.46C24.92 38.5933 24.68 37.5933 24.68 36.46C24.68 35.3267 24.9267 34.3267 25.42 33.46C25.9267 32.5933 26.6133 31.9267 27.48 31.46C28.3467 30.98 29.3133 30.74 30.38 30.74C31.4467 30.74 32.4133 30.98 33.28 31.46C34.1467 31.9267 34.8267 32.5933 35.32 33.46C35.8267 34.3267 36.08 35.3267 36.08 36.46C36.08 37.5933 35.82 38.5933 35.3 39.46C34.7933 40.3267 34.1 41 33.22 41.48C32.3533 41.9467 31.38 42.18 30.3 42.18ZM30.3 39.74C30.8067 39.74 31.28 39.62 31.72 39.38C32.1733 39.1267 32.5333 38.7533 32.8 38.26C33.0667 37.7667 33.2 37.1667 33.2 36.46C33.2 35.4067 32.92 34.6 32.36 34.04C31.8133 33.4667 31.14 33.18 30.34 33.18C29.54 33.18 28.8667 33.4667 28.32 34.04C27.7867 34.6 27.52 35.4067 27.52 36.46C27.52 37.5133 27.78 38.3267 28.3 38.9C28.8333 39.46 29.5 39.74 30.3 39.74ZM41.9339 32.64C42.2939 32.0533 42.7606 31.5933 43.3339 31.26C43.9206 30.9267 44.5872 30.76 45.3339 30.76V33.7H44.5939C43.7139 33.7 43.0472 33.9067 42.5939 34.32C42.1539 34.7333 41.9339 35.4533 41.9339 36.48V42H39.1339V30.92H41.9339V32.64ZM47.4998 36.42C47.4998 35.3 47.7198 34.3067 48.1598 33.44C48.6132 32.5733 49.2265 31.9067 49.9998 31.44C50.7732 30.9733 51.6332 30.74 52.5798 30.74C53.2998 30.74 53.9865 30.9 54.6398 31.22C55.2932 31.5267 55.8132 31.94 56.1998 32.46V27.2H59.0398V42H56.1998V40.36C55.8532 40.9067 55.3665 41.3467 54.7398 41.68C54.1132 42.0133 53.3865 42.18 52.5598 42.18C51.6265 42.18 50.7732 41.94 49.9998 41.46C49.2265 40.98 48.6132 40.3067 48.1598 39.44C47.7198 38.56 47.4998 37.5533 47.4998 36.42ZM56.2198 36.46C56.2198 35.78 56.0865 35.2 55.8198 34.72C55.5532 34.2267 55.1932 33.8533 54.7398 33.6C54.2865 33.3333 53.7998 33.2 53.2798 33.2C52.7598 33.2 52.2798 33.3267 51.8398 33.58C51.3998 33.8333 51.0398 34.2067 50.7598 34.7C50.4932 35.18 50.3598 35.7533 50.3598 36.42C50.3598 37.0867 50.4932 37.6733 50.7598 38.18C51.0398 38.6733 51.3998 39.0533 51.8398 39.32C52.2932 39.5867 52.7732 39.72 53.2798 39.72C53.7998 39.72 54.2865 39.5933 54.7398 39.34C55.1932 39.0733 55.5532 38.7 55.8198 38.22C56.0865 37.7267 56.2198 37.14 56.2198 36.46ZM73.0745 36.22C73.0745 36.62 73.0479 36.98 72.9945 37.3H64.8945C64.9612 38.1 65.2412 38.7267 65.7345 39.18C66.2279 39.6333 66.8345 39.86 67.5545 39.86C68.5945 39.86 69.3345 39.4133 69.7745 38.52H72.7945C72.4745 39.5867 71.8612 40.4667 70.9545 41.16C70.0479 41.84 68.9345 42.18 67.6145 42.18C66.5479 42.18 65.5879 41.9467 64.7345 41.48C63.8945 41 63.2345 40.3267 62.7545 39.46C62.2879 38.5933 62.0545 37.5933 62.0545 36.46C62.0545 35.3133 62.2879 34.3067 62.7545 33.44C63.2212 32.5733 63.8745 31.9067 64.7145 31.44C65.5545 30.9733 66.5212 30.74 67.6145 30.74C68.6679 30.74 69.6079 30.9667 70.4345 31.42C71.2745 31.8733 71.9212 32.52 72.3745 33.36C72.8412 34.1867 73.0745 35.14 73.0745 36.22ZM70.1745 35.42C70.1612 34.7 69.9012 34.1267 69.3945 33.7C68.8879 33.26 68.2679 33.04 67.5345 33.04C66.8412 33.04 66.2545 33.2533 65.7745 33.68C65.3079 34.0933 65.0212 34.6733 64.9145 35.42H70.1745ZM82.2583 30.76C83.5783 30.76 84.6449 31.18 85.4583 32.02C86.2716 32.8467 86.6783 34.0067 86.6783 35.5V42H83.8783V35.88C83.8783 35 83.6583 34.3267 83.2183 33.86C82.7783 33.38 82.1783 33.14 81.4183 33.14C80.6449 33.14 80.0316 33.38 79.5783 33.86C79.1383 34.3267 78.9183 35 78.9183 35.88V42H76.1183V30.92H78.9183V32.3C79.2916 31.82 79.7649 31.4467 80.3383 31.18C80.9249 30.9 81.5649 30.76 82.2583 30.76Z" fill="#2E1114"/>
<path d="M20 41H10.4C13.2303 38.0754 15.3218 36.7552 20 35C7.23516 26.9073 4.10733 22.6916 2 11H9.2H20V28.25V35V41Z" fill="#B28474"/>
<path d="M20 35V41H10.4C13.2303 38.0754 15.3218 36.7552 20 35ZM20 35C7.23516 26.9073 4.10733 22.6916 2 11H9.2M20 35V28.25M9.2 11H20V28.25M9.2 11C10.237 18.9935 12.5888 22.6822 20 28.25" stroke="#2E1114" stroke-width="3" stroke-linejoin="round"/>
<path d="M20 35V41H10.4C13.2303 38.0754 15.3218 36.7552 20 35ZM20 35C7.23516 26.9073 4.10733 22.6916 2 11H9.2M20 35V28.25M9.2 11H20V28.25M9.2 11C10.237 18.9935 12.5888 22.6822 20 28.25" stroke="black" stroke-opacity="0.2" stroke-width="3" stroke-linejoin="round"/>
</svg>
