<svg width="40" height="40" viewBox="0 0 40 40" fill="none" xmlns="http://www.w3.org/2000/svg">
<circle cx="20" cy="20" r="18.75" fill="#E5D4CD"/>
<circle cx="20" cy="20" r="18.75" stroke="#2E1114" stroke-width="1.5"/>
<circle cx="20" cy="20" r="18.75" stroke="black" stroke-opacity="0.2" stroke-width="1.5"/>
<path d="M27.1998 34.3999H19.5198C21.7841 31.7678 23.4573 30.5796 27.1998 28.9999C16.9879 21.7165 14.4857 17.9224 12.7998 7.3999H18.5598H27.1998V22.9249V28.9999V34.3999Z" fill="#B28474"/>
<path d="M27.1998 28.9999V34.3999H19.5198C21.7841 31.7678 23.4573 30.5796 27.1998 28.9999ZM27.1998 28.9999C16.9879 21.7165 14.4857 17.9224 12.7998 7.3999H18.5598M27.1998 28.9999V22.9249M18.5598 7.3999H27.1998V22.9249M18.5598 7.3999C19.3894 14.5941 21.2709 17.9139 27.1998 22.9249" stroke="#2E1114" stroke-width="1.5" stroke-linejoin="round"/>
<path d="M27.1998 28.9999V34.3999H19.5198C21.7841 31.7678 23.4573 30.5796 27.1998 28.9999ZM27.1998 28.9999C16.9879 21.7165 14.4857 17.9224 12.7998 7.3999H18.5598M27.1998 28.9999V22.9249M18.5598 7.3999H27.1998V22.9249M18.5598 7.3999C19.3894 14.5941 21.2709 17.9139 27.1998 22.9249" stroke="black" stroke-opacity="0.2" stroke-width="1.5" stroke-linejoin="round"/>
</svg>
